<?xml version="1.0" standalone="no"?>
<!DOCTYPE svg PUBLIC "-//W3C//DTD SVG 20010904//EN"
 "http://www.w3.org/TR/2001/REC-SVG-20010904/DTD/svg10.dtd">
<svg version="1.0" xmlns="http://www.w3.org/2000/svg"
 width="1280.000000pt" height="1280.000000pt" viewBox="0 0 1280.000000 1280.000000"
 preserveAspectRatio="xMidYMid meet">

<g transform="translate(0.000000,1280.000000) scale(0.100000,-0.100000)"
fill="#000000" stroke="none">
<path d="M2849 9980 c-1 -38 -2 -76 -3 -82 -1 -10 137 -14 644 -18 l645 -5 3
-321 c2 -295 4 -323 20 -329 29 -11 422 -156 492 -180 36 -13 231 -84 435
-159 203 -74 373 -132 378 -127 4 4 6 185 5 402 l-3 394 -75 28 c-41 16 -92
35 -112 43 -21 8 -55 21 -75 29 -21 7 -121 44 -223 80 -162 59 -238 87 -380
140 -19 7 -118 43 -220 80 -102 36 -200 73 -218 81 -27 12 -137 14 -672 14
l-640 0 -1 -70z"/>
<path d="M1320 9960 l0 -80 558 -2 557 -3 3 -322 2 -323 85 0 85 0 0 405 0
405 -645 0 -645 0 0 -80z"/>
<path d="M5945 9888 c-2 -7 -3 -42 -2 -78 l2 -65 645 -5 645 -5 5 -325 5 -324
60 -22 c161 -59 484 -178 605 -222 74 -27 248 -91 387 -142 139 -50 257 -89
263 -85 12 7 14 773 2 791 -7 10 -142 62 -522 200 -102 37 -214 78 -250 91
-36 14 -76 28 -90 33 -14 4 -88 31 -165 60 -77 28 -177 65 -222 81 l-83 29
-640 0 c-504 0 -642 -3 -645 -12z"/>
<path d="M5716 9482 c-3 -3 -6 -184 -6 -403 0 -369 1 -397 18 -404 27 -11 491
-181 672 -246 91 -33 181 -66 200 -74 19 -8 94 -35 165 -60 72 -26 159 -58
194 -72 37 -14 67 -21 72 -16 5 5 8 182 7 403 l-3 394 -75 29 c-41 16 -122 46
-180 67 -308 111 -449 162 -480 175 -19 8 -123 46 -230 85 -107 39 -230 84
-272 100 -42 15 -79 26 -82 22z"/>
<path d="M1320 8990 l0 -80 558 -2 557 -3 5 -320 5 -320 80 0 80 0 3 403 2
402 -645 0 -645 0 0 -80z"/>
<path d="M2849 9065 c0 -3 -1 -38 -1 -77 l-1 -73 644 -5 644 -5 3 -321 c2
-295 4 -323 20 -329 9 -4 231 -85 492 -180 261 -95 549 -200 639 -234 91 -33
168 -58 173 -55 4 3 8 183 8 399 0 388 0 394 -21 405 -11 6 -68 29 -127 50
-107 38 -447 162 -617 225 -49 18 -196 72 -326 119 l-236 86 -647 0 c-355 0
-646 -2 -647 -5z"/>
<path d="M7260 8491 c0 -371 1 -399 18 -406 28 -11 467 -173 587 -217 61 -22
157 -57 215 -78 58 -20 192 -70 299 -109 107 -39 198 -71 202 -71 5 0 9 180 9
401 l0 400 -35 15 c-34 14 -451 166 -885 324 -124 44 -234 85 -245 90 -44 19
-137 50 -150 50 -13 0 -15 -56 -15 -399z"/>
<path d="M5715 8508 c-3 -7 -4 -190 -3 -406 l3 -394 145 -53 c80 -29 336 -123
570 -208 234 -85 463 -169 508 -186 46 -17 88 -29 93 -25 11 6 12 774 1 791
-6 10 -205 87 -437 170 -70 25 -584 213 -765 280 -52 19 -98 37 -103 40 -4 2
-9 -2 -12 -9z"/>
<path d="M1160 8139 c-155 -7 -281 -16 -527 -38 -39 -4 -74 -9 -77 -12 -14
-14 142 -573 250 -889 346 -1021 842 -1888 1382 -2416 l114 -111 -89 -48
c-142 -77 -211 -126 -316 -225 -178 -168 -266 -371 -292 -672 l-7 -78 5070 0
5069 0 66 68 c80 83 101 108 159 197 179 276 274 624 285 1050 5 203 -4 314
-27 326 -8 4 -94 26 -190 49 -280 67 -533 138 -705 197 -325 111 -1144 382
-1670 553 -142 46 -394 135 -900 320 -88 32 -216 79 -285 104 -69 24 -257 92
-417 150 -161 58 -350 126 -420 150 -71 25 -186 65 -258 91 -150 53 -1116 377
-1250 419 -49 15 -117 36 -150 46 -33 10 -134 41 -225 68 -660 201 -1301 361
-1970 491 -506 98 -1217 184 -1700 206 -233 10 -738 13 -920 4z m2068 -1182
c3 -62 10 -69 74 -81 20 -4 60 -22 89 -41 28 -19 56 -35 63 -35 6 1 27 14 46
30 39 34 55 37 65 13 4 -12 -1 -24 -17 -36 -13 -9 -33 -26 -46 -37 l-23 -19
22 -43 c14 -27 24 -69 27 -113 5 -81 13 -95 54 -95 36 0 68 -16 68 -35 0 -20
-21 -23 -63 -9 -49 17 -63 11 -92 -45 -13 -26 -44 -66 -69 -89 -51 -47 -55
-65 -26 -102 21 -27 26 -55 11 -64 -19 -12 -39 6 -55 48 l-16 43 -131 -2 -131
-1 -22 -44 c-11 -24 -27 -46 -33 -48 -24 -7 -26 29 -4 72 11 24 21 46 21 49 0
4 -20 25 -45 48 -24 23 -57 66 -71 96 -25 50 -30 54 -53 49 -14 -4 -43 -9 -63
-13 -34 -5 -38 -3 -38 15 0 16 8 23 28 27 78 16 76 14 84 94 5 42 17 92 28
113 27 53 26 61 -17 89 -41 26 -54 56 -28 65 11 5 29 -5 53 -29 l37 -36 58 39
c32 22 77 45 100 51 23 6 48 13 55 15 8 2 12 23 12 57 0 58 5 69 30 65 11 -2
16 -18 18 -61z"/>
<path d="M3083 6793 c-34 -17 -53 -33 -53 -44 0 -19 84 -79 111 -79 21 0 27
17 31 90 2 48 0 55 -17 57 -11 2 -44 -9 -72 -24z"/>
<path d="M3236 6804 c-10 -26 4 -122 20 -135 16 -13 47 3 97 49 38 36 35 60
-10 78 -62 26 -99 29 -107 8z"/>
<path d="M2972 6687 c-6 -6 -15 -41 -22 -76 -14 -76 -5 -88 49 -64 20 8 48 19
64 25 37 14 34 31 -14 75 -53 49 -65 55 -77 40z"/>
<path d="M3368 6651 c-44 -41 -51 -53 -42 -67 13 -21 67 -42 112 -43 l34 -1
-7 43 c-19 130 -27 136 -97 68z"/>
<path d="M3170 6585 c-25 -30 14 -74 53 -59 41 15 26 74 -18 74 -12 0 -28 -7
-35 -15z"/>
<path d="M3020 6488 c-77 -17 -80 -29 -23 -89 30 -31 56 -50 64 -47 18 7 54
111 46 132 -7 18 -21 18 -87 4z"/>
<path d="M3295 6488 c-5 -13 19 -84 41 -122 16 -26 37 -16 74 35 38 53 39 76
3 83 -88 16 -113 17 -118 4z"/>
<path d="M3176 6418 c-8 -13 -23 -40 -32 -61 -23 -47 -12 -57 61 -57 79 0 83
8 45 79 -35 66 -51 74 -74 39z"/>
<path d="M7260 7521 l0 -399 43 -17 c46 -19 706 -260 997 -365 58 -21 142 -52
188 -69 46 -17 88 -31 93 -31 5 0 9 160 9 401 l0 400 -37 16 c-21 8 -123 46
-228 84 -104 37 -381 138 -615 223 -234 86 -430 156 -437 156 -10 0 -13 -84
-13 -399z"/>
<path d="M9300 7420 l0 -210 -217 -2 -218 -3 -3 -97 c-1 -54 -1 -99 0 -100 2
-2 358 -5 791 -8 l788 -5 -1 -446 c0 -351 2 -448 12 -457 7 -5 105 -40 218
-77 113 -37 326 -107 473 -156 148 -49 272 -89 277 -89 5 0 10 21 12 48 l3 47
188 -4 187 -3 0 123 0 124 -122 76 -123 75 -3 124 c-1 68 -7 129 -13 136 -6 7
-74 52 -152 100 -78 48 -164 102 -192 119 -27 18 -115 72 -195 122 -200 124
-433 268 -507 314 l-62 39 -208 2 -208 3 -3 87 -3 88 -182 2 -182 3 -3 118 -3
117 -174 0 -175 0 0 -210z"/>
<path d="M9112 6823 l3 -68 145 0 145 0 0 65 0 65 -148 3 -148 3 3 -68z"/>
<path d="M9574 6876 c-3 -7 -4 -38 -2 -67 l3 -54 148 -3 147 -3 0 71 0 70
-145 0 c-114 0 -147 -3 -151 -14z"/>
<path d="M10024 6876 c-3 -7 -4 -38 -2 -67 l3 -54 145 0 145 0 3 68 3 67 -146
0 c-114 0 -147 -3 -151 -14z"/>
<path d="M10022 6543 l3 -68 148 -3 147 -3 0 71 0 70 -150 0 -151 0 3 -67z"/>
</g>
</svg>
